M48
; DRILL file KiCad 10.0.4 date 2026-10-06T17:26:26
; FORMAT={-:-/ absolute / metric / decimal}
; #@! TF.CreationDate,2026-10-06T17:26:26+01:00
; #@! TF.GenerationSoftware,Kicad,Pcbnew,10.0.4
; #@! TF.FileFunction,Plated,1,4,PTH
FMAT,2
METRIC
; #@! TA.AperFunction,Plated,PTH,ComponentDrill
T1C0.500
; #@! TA.AperFunction,Plated,PTH,ComponentDrill
T2C0.700
; #@! TA.AperFunction,Plated,PTH,ComponentDrill
T3C0.800
; #@! TA.AperFunction,Plated,PTH,ComponentDrill
T4C0.900
; #@! TA.AperFunction,Plated,PTH,ComponentDrill
T5C1.000
; #@! TA.AperFunction,Plated,PTH,ComponentDrill
T6C1.100
; #@! TA.AperFunction,Plated,PTH,ComponentDrill
T7C1.200
; #@! TA.AperFunction,Plated,PTH,ComponentDrill
T8C1.300
; #@! TA.AperFunction,Plated,PTH,ComponentDrill
T9C1.600
; #@! TA.AperFunction,Plated,PTH,ComponentDrill
T10C2.400
%
G90
G05
T1
X135.0Y-56.0
T2
X51.4Y-178.15
X56.48Y-178.15
X66.4Y-112.61
X66.4Y-117.69
X68.36Y-178.15
X73.44Y-178.15
X73.9Y-112.65
X73.9Y-117.73
X75.82Y-126.65
X78.9Y-105.15
X78.9Y-110.23
X80.9Y-126.65
X85.4Y-178.15
X90.48Y-178.15
X97.9Y-100.61
X97.9Y-105.69
X99.9Y-136.4
X99.9Y-141.48
X109.78Y-106.65
X109.82Y-112.15
X110.9Y-136.36
X110.9Y-141.44
X111.9Y-132.65
X114.86Y-106.65
X114.9Y-112.15
X116.82Y-103.19
X116.98Y-132.65
X121.9Y-103.19
X121.9Y-151.15
X122.4Y-174.65
X126.9Y-142.11
X126.9Y-147.19
X126.98Y-151.15
X127.48Y-174.65
X127.86Y-139.15
X129.36Y-108.69
X129.36Y-113.77
X132.94Y-139.15
X135.36Y-151.15
X140.44Y-151.15
T3
X42.9Y-144.075
X42.9Y-151.695
X45.4Y-144.075
X45.4Y-151.695
X52.32Y-142.385
X54.86Y-142.385
X57.4Y-142.385
X80.86Y-141.385
X83.4Y-141.385
X84.09Y-99.335
X84.09Y-106.955
X85.94Y-141.385
X86.63Y-99.335
X86.63Y-106.955
X89.17Y-99.335
X89.17Y-106.955
X91.4Y-143.075
X91.4Y-150.695
X91.71Y-99.335
X91.71Y-106.955
X93.9Y-143.075
X93.9Y-150.695
X99.899Y-52.493
X99.899Y-55.033
X99.899Y-57.573
X99.899Y-60.113
X107.519Y-52.493
X107.519Y-55.033
X107.519Y-57.573
X107.519Y-60.113
X114.59Y-137.84
X114.59Y-140.38
X114.59Y-142.92
X114.59Y-145.46
X118.055Y-107.88
X118.055Y-110.42
X118.055Y-112.96
X118.055Y-115.5
X122.21Y-137.84
X122.21Y-140.38
X122.21Y-142.92
X122.21Y-145.46
X125.675Y-107.88
X125.675Y-110.42
X125.675Y-112.96
X125.675Y-115.5
T4
X53.4Y-148.885
X53.4Y-151.425
X60.4Y-148.885
X60.4Y-151.425
X76.9Y-147.62
X76.9Y-150.16
X83.9Y-147.62
X83.9Y-150.16
T5
X66.65Y-122.15
X74.15Y-122.15
X75.65Y-95.15
X83.15Y-95.15
X94.5Y-35.25
X94.5Y-42.75
X95.9Y-110.4
X95.9Y-117.9
X105.4Y-137.4
X105.4Y-144.9
X105.86Y-106.15
X105.86Y-113.65
X107.145Y-150.15
X109.925Y-119.92
X114.645Y-150.15
X117.425Y-119.92
X118.5Y-66.25
X118.5Y-73.75
X120.775Y-35.815
X120.775Y-43.315
X122.395Y-133.15
X125.925Y-103.42
X129.895Y-133.15
X131.4Y-143.9
X131.4Y-151.4
X133.425Y-103.42
X136.9Y-143.65
X144.4Y-143.65
T6
X129.0Y-50.92
X129.0Y-61.08
T7
X53.62Y-118.15
X66.4Y-105.15
X73.9Y-105.15
X80.465Y-118.15
X81.5Y-35.065
X81.5Y-42.565
X87.965Y-118.15
X114.852Y-166.15
X118.0Y-52.048
X118.0Y-59.548
X122.352Y-166.15
X131.5Y-66.435
X131.5Y-73.935
X133.5Y-35.565
X133.5Y-43.065
X135.68Y-166.73
T8
X42.75Y-173.655
X47.75Y-158.655
X51.15Y-135.385
X52.75Y-173.655
X57.65Y-135.385
X59.9Y-173.655
X64.9Y-158.655
X69.9Y-173.655
X76.9Y-173.655
X80.15Y-135.385
X81.9Y-158.655
X86.65Y-135.385
X86.9Y-173.655
X94.9Y-173.655
X99.9Y-158.655
X104.9Y-173.655
T9
X47.9Y-113.07
X47.9Y-123.23
X106.0Y-66.5
X106.0Y-72.5
X108.0Y-36.5
X108.0Y-42.5
X141.4Y-161.65
X141.4Y-171.81
T10
X94.15Y-57.65
X94.15Y-70.35
T5
G00X43.2Y-43.5
M15
G01X43.2Y-41.3
M16
G05
G00X49.1Y-39.0
M15
G01X46.9Y-39.0
M16
G05
G00X49.3Y-45.3
M15
G01X46.7Y-45.3
M16
G05
M30
