%TF.GenerationSoftware,KiCad,Pcbnew,10.0.4*%
%TF.CreationDate,2026-10-06T17:25:36+01:00*%
%TF.ProjectId,Distortion Pedal,44697374-6f72-4746-996f-6e2050656461,1*%
%TF.SameCoordinates,Original*%
%TF.FileFunction,Copper,L1,Top*%
%TF.FilePolarity,Positive*%
%FSLAX46Y46*%
G04 Gerber Fmt 4.6, Leading zero omitted, Abs format (unit mm)*
G04 Created by KiCad (PCBNEW 10.0.4) date 2026-10-06 17:25:36*
%MOMM*%
%LPD*%
G01*
G04 APERTURE LIST*
G04 Aperture macros list*
%AMRoundRect*
0 Rectangle with rounded corners*
0 $1 Rounding radius*
0 $2 $3 $4 $5 $6 $7 $8 $9 X,Y pos of 4 corners*
0 Add a 4 corners polygon primitive as box body*
4,1,4,$2,$3,$4,$5,$6,$7,$8,$9,$2,$3,0*
0 Add four circle primitives for the rounded corners*
1,1,$1+$1,$2,$3*
1,1,$1+$1,$4,$5*
1,1,$1+$1,$6,$7*
1,1,$1+$1,$8,$9*
0 Add four rect primitives between the rounded corners*
20,1,$1+$1,$2,$3,$4,$5,0*
20,1,$1+$1,$4,$5,$6,$7,0*
20,1,$1+$1,$6,$7,$8,$9,0*
20,1,$1+$1,$8,$9,$2,$3,0*%
G04 Aperture macros list end*
%TA.AperFunction,ComponentPad*%
%ADD10RoundRect,0.250001X0.949999X-0.949999X0.949999X0.949999X-0.949999X0.949999X-0.949999X-0.949999X0*%
%TD*%
%TA.AperFunction,ComponentPad*%
%ADD11C,2.400000*%
%TD*%
%TA.AperFunction,ComponentPad*%
%ADD12C,1.400000*%
%TD*%
%TA.AperFunction,ComponentPad*%
%ADD13C,2.340000*%
%TD*%
%TA.AperFunction,ComponentPad*%
%ADD14C,2.000000*%
%TD*%
%TA.AperFunction,ComponentPad*%
%ADD15R,1.800000X1.800000*%
%TD*%
%TA.AperFunction,ComponentPad*%
%ADD16C,1.800000*%
%TD*%
%TA.AperFunction,ComponentPad*%
%ADD17RoundRect,0.250000X-0.550000X0.550000X-0.550000X-0.550000X0.550000X-0.550000X0.550000X0.550000X0*%
%TD*%
%TA.AperFunction,ComponentPad*%
%ADD18C,1.600000*%
%TD*%
%TA.AperFunction,ComponentPad*%
%ADD19R,1.500000X1.500000*%
%TD*%
%TA.AperFunction,ComponentPad*%
%ADD20C,3.200000*%
%TD*%
%TA.AperFunction,ComponentPad*%
%ADD21RoundRect,0.250000X-0.550000X-0.550000X0.550000X-0.550000X0.550000X0.550000X-0.550000X0.550000X0*%
%TD*%
%TA.AperFunction,ComponentPad*%
%ADD22RoundRect,0.250001X-0.949999X-0.949999X0.949999X-0.949999X0.949999X0.949999X-0.949999X0.949999X0*%
%TD*%
%TA.AperFunction,ComponentPad*%
%ADD23RoundRect,0.250001X-0.949999X0.949999X-0.949999X-0.949999X0.949999X-0.949999X0.949999X0.949999X0*%
%TD*%
%TA.AperFunction,ComponentPad*%
%ADD24R,0.850000X0.850000*%
%TD*%
%TA.AperFunction,ComponentPad*%
%ADD25R,2.250000X2.250000*%
%TD*%
%TA.AperFunction,ComponentPad*%
%ADD26C,2.250000*%
%TD*%
%TA.AperFunction,ComponentPad*%
%ADD27RoundRect,0.250000X0.550000X-0.550000X0.550000X0.550000X-0.550000X0.550000X-0.550000X-0.550000X0*%
%TD*%
%TA.AperFunction,ComponentPad*%
%ADD28RoundRect,0.249999X-0.850001X0.850001X-0.850001X-0.850001X0.850001X-0.850001X0.850001X0.850001X0*%
%TD*%
%TA.AperFunction,ComponentPad*%
%ADD29C,2.200000*%
%TD*%
%TA.AperFunction,ComponentPad*%
%ADD30C,3.400000*%
%TD*%
%TA.AperFunction,ComponentPad*%
%ADD31C,3.000000*%
%TD*%
%TA.AperFunction,ComponentPad*%
%ADD32R,4.600000X2.000000*%
%TD*%
%TA.AperFunction,ComponentPad*%
%ADD33O,4.200000X2.000000*%
%TD*%
%TA.AperFunction,ComponentPad*%
%ADD34O,2.000000X4.200000*%
%TD*%
%TA.AperFunction,ComponentPad*%
%ADD35RoundRect,0.250001X0.949999X0.949999X-0.949999X0.949999X-0.949999X-0.949999X0.949999X-0.949999X0*%
%TD*%
%TA.AperFunction,ComponentPad*%
%ADD36R,3.000000X3.000000*%
%TD*%
%TA.AperFunction,ComponentPad*%
%ADD37RoundRect,0.250000X0.550000X0.550000X-0.550000X0.550000X-0.550000X-0.550000X0.550000X-0.550000X0*%
%TD*%
%TA.AperFunction,Conductor*%
%ADD38C,0.200000*%
%TD*%
G04 APERTURE END LIST*
D10*
%TO.P,C21,1*%
%TO.N,0*%
X133500000Y-43065216D03*
D11*
%TO.P,C21,2*%
%TO.N,-9V*%
X133500000Y-35565216D03*
%TD*%
D12*
%TO.P,R6,1*%
%TO.N,Net-(SW3-B)*%
X140439999Y-151150000D03*
%TO.P,R6,2*%
%TO.N,Net-(C3-Pad1)*%
X135359999Y-151150000D03*
%TD*%
D13*
%TO.P,Treble1,1,1_1*%
%TO.N,Net-(R16-Pad2)*%
X86899999Y-173655000D03*
%TO.P,Treble1,2,2_2*%
%TO.N,Net-(R22-Pad1)*%
X81899999Y-158655000D03*
%TO.P,Treble1,3,3_3*%
%TO.N,unconnected-(Treble1-Pad3)*%
X76899999Y-173655000D03*
%TD*%
D14*
%TO.P,C15,1*%
%TO.N,+9V*%
X122394999Y-133150000D03*
%TO.P,C15,2*%
%TO.N,0*%
X129894999Y-133150000D03*
%TD*%
D15*
%TO.P,D8,1,K_1*%
%TO.N,Net-(D3-K)*%
X53399999Y-151425000D03*
D16*
%TO.P,D8,2,A_2*%
%TO.N,Net-(D7-K)*%
X53399999Y-148885000D03*
%TD*%
D17*
%TO.P,D6,1,K_1*%
%TO.N,Net-(D3-A)*%
X45399999Y-144075000D03*
D18*
%TO.P,D6,2,A_2*%
%TO.N,Net-(D3-K)*%
X45399999Y-151695000D03*
%TD*%
D12*
%TO.P,R22,1*%
%TO.N,Net-(R22-Pad1)*%
X116819999Y-103190000D03*
%TO.P,R22,2*%
%TO.N,Net-(U2B--)*%
X121899999Y-103190000D03*
%TD*%
D14*
%TO.P,C2,1*%
%TO.N,0*%
X105399999Y-144900000D03*
%TO.P,C2,2*%
%TO.N,Net-(C2-Pad2)*%
X105399999Y-137400000D03*
%TD*%
%TO.P,C3,1*%
%TO.N,Net-(C3-Pad1)*%
X136899999Y-143650000D03*
%TO.P,C3,2*%
%TO.N,0*%
X144399999Y-143650000D03*
%TD*%
D19*
%TO.P,SW2,1,A_1*%
%TO.N,Net-(SW2-A)*%
X54859999Y-142385000D03*
D18*
%TO.P,SW2,2,B_2*%
%TO.N,Net-(D3-A)*%
X52319999Y-142385000D03*
%TO.P,SW2,3,C_3*%
%TO.N,Net-(D7-K)*%
X57399999Y-142385000D03*
%TD*%
D20*
%TO.P,L1,1,1_1*%
%TO.N,+9V*%
X106000000Y-72500000D03*
%TO.P,L1,2,2_2*%
%TO.N,Net-(BT1-+)*%
X106000000Y-66500000D03*
%TD*%
D21*
%TO.P,U2,1*%
%TO.N,Net-(R22-Pad1)*%
X118054999Y-107880000D03*
D18*
%TO.P,U2,2,-_2*%
%TO.N,Net-(U2A--)*%
X118054999Y-110420000D03*
%TO.P,U2,3,+_3*%
%TO.N,0*%
X118054999Y-112960000D03*
%TO.P,U2,4,V-_4*%
%TO.N,-9V*%
X118054999Y-115500000D03*
%TO.P,U2,5,+_5*%
%TO.N,0*%
X125674999Y-115500000D03*
%TO.P,U2,6,-_6*%
%TO.N,Net-(U2B--)*%
X125674999Y-112960000D03*
%TO.P,U2,7*%
%TO.N,Net-(R19-Pad2)*%
X125674999Y-110420000D03*
%TO.P,U2,8,V+_8*%
%TO.N,+9V*%
X125674999Y-107880000D03*
%TD*%
D19*
%TO.P,SW1,1,A_1*%
%TO.N,Net-(SW1-A)*%
X83399999Y-141385000D03*
D18*
%TO.P,SW1,2,B_2*%
%TO.N,Net-(D1-K)*%
X85939999Y-141385000D03*
%TO.P,SW1,3,C_3*%
%TO.N,Net-(D4-K)*%
X80859999Y-141385000D03*
%TD*%
D22*
%TO.P,C19,1*%
%TO.N,Net-(C1-Pad2)*%
X66399999Y-105150000D03*
D11*
%TO.P,C19,2*%
%TO.N,Net-(U3-+)*%
X73899999Y-105150000D03*
%TD*%
D23*
%TO.P,C11,1*%
%TO.N,+9V*%
X131500000Y-66434784D03*
D11*
%TO.P,C11,2*%
%TO.N,0*%
X131500000Y-73934784D03*
%TD*%
D21*
%TO.P,U1,1*%
%TO.N,Net-(Bass1-Pad2)*%
X114589999Y-137840000D03*
D18*
%TO.P,U1,2,-_2*%
%TO.N,Net-(U1A--)*%
X114589999Y-140380000D03*
%TO.P,U1,3,+_3*%
%TO.N,0*%
X114589999Y-142920000D03*
%TO.P,U1,4,V-_4*%
%TO.N,-9V*%
X114589999Y-145460000D03*
%TO.P,U1,5,+_5*%
%TO.N,0*%
X122209999Y-145460000D03*
%TO.P,U1,6,-_6*%
%TO.N,Net-(U1B--)*%
X122209999Y-142920000D03*
%TO.P,U1,7*%
%TO.N,Net-(Mids1-Pad2)*%
X122209999Y-140380000D03*
%TO.P,U1,8,V+_8*%
%TO.N,+9V*%
X122209999Y-137840000D03*
%TD*%
D14*
%TO.P,C24,1*%
%TO.N,0*%
X120775000Y-43315216D03*
%TO.P,C24,2*%
%TO.N,-9V*%
X120775000Y-35815216D03*
%TD*%
%TO.P,C12,1*%
%TO.N,-9V*%
X95899999Y-110400000D03*
%TO.P,C12,2*%
%TO.N,0*%
X95899999Y-117900000D03*
%TD*%
D24*
%TO.P,J4,1,Pin_1_1*%
%TO.N,0*%
X135000000Y-56000000D03*
%TD*%
D12*
%TO.P,R13,1*%
%TO.N,Net-(C6-Pad1)*%
X109779999Y-106650000D03*
%TO.P,R13,2*%
%TO.N,Net-(U2A--)*%
X114859999Y-106650000D03*
%TD*%
%TO.P,R20,1*%
%TO.N,Net-(Mids1-Pad2)*%
X127859999Y-139150000D03*
%TO.P,R20,2*%
%TO.N,Net-(U2B--)*%
X132939999Y-139150000D03*
%TD*%
D10*
%TO.P,C9,1*%
%TO.N,Net-(U4-CAP+)*%
X117999999Y-59547729D03*
D11*
%TO.P,C9,2*%
%TO.N,Net-(D13-K)*%
X117999999Y-52047729D03*
%TD*%
D25*
%TO.P,SW4,1,A_1*%
%TO.N,Net-(SW3-B)*%
X80149999Y-135385000D03*
D26*
%TO.P,SW4,2,B_2*%
%TO.N,Net-(SW1-A)*%
X86649999Y-135385000D03*
%TD*%
D14*
%TO.P,C17,1*%
%TO.N,-9V*%
X117424999Y-119920000D03*
%TO.P,C17,2*%
%TO.N,0*%
X109924999Y-119920000D03*
%TD*%
D12*
%TO.P,R15,1*%
%TO.N,0*%
X73899999Y-117730000D03*
%TO.P,R15,2*%
%TO.N,Net-(J1-PadT)*%
X73899999Y-112650000D03*
%TD*%
D25*
%TO.P,SW3,1,A_1*%
%TO.N,Net-(SW2-A)*%
X57649999Y-135385000D03*
D26*
%TO.P,SW3,2,B_2*%
%TO.N,Net-(SW3-B)*%
X51149999Y-135385000D03*
%TD*%
D14*
%TO.P,C22,1*%
%TO.N,+9V*%
X118500000Y-66250000D03*
%TO.P,C22,2*%
%TO.N,0*%
X118500000Y-73750000D03*
%TD*%
%TO.P,C16,1*%
%TO.N,+9V*%
X125924999Y-103420000D03*
%TO.P,C16,2*%
%TO.N,0*%
X133424999Y-103420000D03*
%TD*%
D12*
%TO.P,R5,1*%
%TO.N,0*%
X126899999Y-147190000D03*
%TO.P,R5,2*%
%TO.N,Net-(C5-Pad1)*%
X126899999Y-142110000D03*
%TD*%
D27*
%TO.P,D3,1,K_1*%
%TO.N,Net-(D3-K)*%
X42899999Y-151695000D03*
D18*
%TO.P,D3,2,A_2*%
%TO.N,Net-(D3-A)*%
X42899999Y-144075000D03*
%TD*%
D14*
%TO.P,C1,1*%
%TO.N,0*%
X74149999Y-122150000D03*
%TO.P,C1,2*%
%TO.N,Net-(C1-Pad2)*%
X66649999Y-122150000D03*
%TD*%
D27*
%TO.P,U3,1,NULL_1*%
%TO.N,unconnected-(U3-NULL-Pad1)*%
X84089999Y-106955000D03*
D18*
%TO.P,U3,2,-_2*%
%TO.N,Net-(D3-K)*%
X86629999Y-106955000D03*
%TO.P,U3,3,+_3*%
%TO.N,Net-(U3-+)*%
X89169999Y-106955000D03*
%TO.P,U3,4,V-_4*%
%TO.N,-9V*%
X91709999Y-106955000D03*
%TO.P,U3,5,NULL_5*%
%TO.N,unconnected-(U3-NULL-Pad5)*%
X91709999Y-99335000D03*
%TO.P,U3,6*%
%TO.N,Net-(SW3-B)*%
X89169999Y-99335000D03*
%TO.P,U3,7,V+_7*%
%TO.N,+9V*%
X86629999Y-99335000D03*
%TO.P,U3,8,NC_8*%
%TO.N,unconnected-(U3-NC-Pad8)*%
X84089999Y-99335000D03*
%TD*%
D22*
%TO.P,C20,1*%
%TO.N,Net-(C20-Pad1)*%
X114852271Y-166150000D03*
D11*
%TO.P,C20,2*%
%TO.N,Net-(C20-Pad2)*%
X122352271Y-166150000D03*
%TD*%
D12*
%TO.P,R3,1*%
%TO.N,Net-(D3-K)*%
X97899999Y-105690000D03*
%TO.P,R3,2*%
%TO.N,Net-(SW3-B)*%
X97899999Y-100610000D03*
%TD*%
D14*
%TO.P,C5,1*%
%TO.N,Net-(C5-Pad1)*%
X131399999Y-143900000D03*
%TO.P,C5,2*%
%TO.N,Net-(C3-Pad1)*%
X131399999Y-151400000D03*
%TD*%
D12*
%TO.P,R12,1*%
%TO.N,0*%
X75819999Y-126650000D03*
%TO.P,R12,2*%
%TO.N,Net-(C18-Pad2)*%
X80899999Y-126650000D03*
%TD*%
D14*
%TO.P,C14,1*%
%TO.N,-9V*%
X114644999Y-150150000D03*
%TO.P,C14,2*%
%TO.N,0*%
X107144999Y-150150000D03*
%TD*%
D15*
%TO.P,D4,1,K_1*%
%TO.N,Net-(D4-K)*%
X83899999Y-147620000D03*
D16*
%TO.P,D4,2,A_2*%
%TO.N,0*%
X83899999Y-150160000D03*
%TD*%
D12*
%TO.P,R1,1*%
%TO.N,Net-(J1-PadT)*%
X66399999Y-112610000D03*
%TO.P,R1,2*%
%TO.N,Net-(C1-Pad2)*%
X66399999Y-117690000D03*
%TD*%
D14*
%TO.P,C6,1*%
%TO.N,Net-(C6-Pad1)*%
X105859999Y-106150000D03*
%TO.P,C6,2*%
%TO.N,Net-(SW3-B)*%
X105859999Y-113650000D03*
%TD*%
D12*
%TO.P,R17,1*%
%TO.N,Net-(U1B--)*%
X73439999Y-178150000D03*
%TO.P,R17,2*%
%TO.N,Net-(Mids1-Pad1)*%
X68359999Y-178150000D03*
%TD*%
%TO.P,R21,1*%
%TO.N,Net-(U2B--)*%
X116979999Y-132650000D03*
%TO.P,R21,2*%
%TO.N,Net-(Bass1-Pad2)*%
X111899999Y-132650000D03*
%TD*%
%TO.P,R7,1*%
%TO.N,Net-(C6-Pad1)*%
X109819999Y-112150000D03*
%TO.P,R7,2*%
%TO.N,0*%
X114899999Y-112150000D03*
%TD*%
D28*
%TO.P,D13,1,K_1*%
%TO.N,Net-(D13-K)*%
X129000000Y-50920000D03*
D29*
%TO.P,D13,2,A_2*%
%TO.N,Net-(D13-A)*%
X129000000Y-61080000D03*
%TD*%
D12*
%TO.P,R4,1*%
%TO.N,Net-(SW3-B)*%
X99899999Y-141480000D03*
%TO.P,R4,2*%
%TO.N,Net-(C2-Pad2)*%
X99899999Y-136400000D03*
%TD*%
%TO.P,R16,1*%
%TO.N,Net-(U2A--)*%
X90479999Y-178150000D03*
%TO.P,R16,2*%
%TO.N,Net-(R16-Pad2)*%
X85399999Y-178150000D03*
%TD*%
D15*
%TO.P,D7,1,K_1*%
%TO.N,Net-(D7-K)*%
X60399999Y-148885000D03*
D16*
%TO.P,D7,2,A_2*%
%TO.N,Net-(D3-K)*%
X60399999Y-151425000D03*
%TD*%
D30*
%TO.P,J1,R*%
%TO.N,0*%
X47899999Y-123230000D03*
%TO.P,J1,S*%
X47899999Y-113070000D03*
D31*
%TO.P,J1,T*%
%TO.N,Net-(J1-PadT)*%
X53619999Y-118150000D03*
%TD*%
D12*
%TO.P,R2,1*%
%TO.N,0*%
X78899999Y-110230000D03*
%TO.P,R2,2*%
%TO.N,Net-(U3-+)*%
X78899999Y-105150000D03*
%TD*%
D32*
%TO.P,J3,1*%
%TO.N,Net-(BT1-+)*%
X48000000Y-45300000D03*
D33*
%TO.P,J3,2*%
%TO.N,0*%
X48000000Y-39000000D03*
D34*
%TO.P,J3,3*%
%TO.N,Net-(BT1--)*%
X43200000Y-42400000D03*
%TD*%
D35*
%TO.P,C18,1*%
%TO.N,Net-(D3-K)*%
X87965214Y-118150000D03*
D11*
%TO.P,C18,2*%
%TO.N,Net-(C18-Pad2)*%
X80465214Y-118150000D03*
%TD*%
D12*
%TO.P,R18,1*%
%TO.N,Net-(U1A--)*%
X56479999Y-178150000D03*
%TO.P,R18,2*%
%TO.N,Net-(Bass1-Pad1)*%
X51399999Y-178150000D03*
%TD*%
D27*
%TO.P,D2,1,K_1*%
%TO.N,0*%
X91399999Y-150695000D03*
D18*
%TO.P,D2,2,A_2*%
%TO.N,Net-(D1-K)*%
X91399999Y-143075000D03*
%TD*%
D17*
%TO.P,D1,1,K_1*%
%TO.N,Net-(D1-K)*%
X93899999Y-143075000D03*
D18*
%TO.P,D1,2,A_2*%
%TO.N,0*%
X93899999Y-150695000D03*
%TD*%
D12*
%TO.P,R23,1*%
%TO.N,Net-(C5-Pad1)*%
X126979999Y-151150000D03*
%TO.P,R23,2*%
%TO.N,Net-(U1B--)*%
X121899999Y-151150000D03*
%TD*%
D10*
%TO.P,C10,1*%
%TO.N,0*%
X81500000Y-42565215D03*
D11*
%TO.P,C10,2*%
%TO.N,Net-(D13-A)*%
X81500000Y-35065215D03*
%TD*%
D36*
%TO.P,BT1,1,+_1*%
%TO.N,Net-(BT1-+)*%
X94149999Y-70350000D03*
D31*
%TO.P,BT1,2,-_2*%
%TO.N,Net-(BT1--)*%
X94149999Y-57650000D03*
%TD*%
D13*
%TO.P,Bass1,1,1_1*%
%TO.N,Net-(Bass1-Pad1)*%
X52749999Y-173655000D03*
%TO.P,Bass1,2,2_2*%
%TO.N,Net-(Bass1-Pad2)*%
X47749999Y-158655000D03*
%TO.P,Bass1,3,3_3*%
%TO.N,unconnected-(Bass1-Pad3)*%
X42749999Y-173655000D03*
%TD*%
D15*
%TO.P,D5,1,K_1*%
%TO.N,0*%
X76899999Y-150160000D03*
D16*
%TO.P,D5,2,A_2*%
%TO.N,Net-(D4-K)*%
X76899999Y-147620000D03*
%TD*%
D13*
%TO.P,Mids1,1,1_1*%
%TO.N,Net-(Mids1-Pad1)*%
X69899999Y-173655000D03*
%TO.P,Mids1,2,2_2*%
%TO.N,Net-(Mids1-Pad2)*%
X64899999Y-158655000D03*
%TO.P,Mids1,3,3_3*%
%TO.N,unconnected-(Mids1-Pad3)*%
X59899999Y-173655000D03*
%TD*%
D30*
%TO.P,J2,R*%
%TO.N,0*%
X141399999Y-161650000D03*
%TO.P,J2,S*%
X141399999Y-171810000D03*
D31*
%TO.P,J2,T*%
%TO.N,Net-(C20-Pad2)*%
X135679999Y-166730000D03*
%TD*%
D12*
%TO.P,R14,1*%
%TO.N,0*%
X127479999Y-174650000D03*
%TO.P,R14,2*%
%TO.N,Net-(C20-Pad2)*%
X122399999Y-174650000D03*
%TD*%
D14*
%TO.P,C13,1*%
%TO.N,+9V*%
X83149999Y-95150000D03*
%TO.P,C13,2*%
%TO.N,0*%
X75649999Y-95150000D03*
%TD*%
D37*
%TO.P,U4,1,NC_1*%
%TO.N,unconnected-(U4-NC-Pad1)*%
X107518832Y-60113058D03*
D18*
%TO.P,U4,2,CAP+_2*%
%TO.N,Net-(U4-CAP+)*%
X107518832Y-57573058D03*
%TO.P,U4,3,GND_3*%
%TO.N,0*%
X107518832Y-55033058D03*
%TO.P,U4,4,CAP-_4*%
%TO.N,Net-(D13-K)*%
X107518832Y-52493058D03*
%TO.P,U4,5,VOUT_5*%
%TO.N,Net-(D13-A)*%
X99898832Y-52493058D03*
%TO.P,U4,6,LV_6*%
%TO.N,unconnected-(U4-LV-Pad6)*%
X99898832Y-55033058D03*
%TO.P,U4,7,OSC_7*%
%TO.N,unconnected-(U4-OSC-Pad7)*%
X99898832Y-57573058D03*
%TO.P,U4,8,V+_8*%
%TO.N,Net-(BT1-+)*%
X99898832Y-60113058D03*
%TD*%
D12*
%TO.P,R11,1*%
%TO.N,Net-(C2-Pad2)*%
X110899999Y-136360000D03*
%TO.P,R11,2*%
%TO.N,Net-(U1A--)*%
X110899999Y-141440000D03*
%TD*%
D13*
%TO.P,Volume1,1,1_1*%
%TO.N,Net-(C20-Pad1)*%
X104899999Y-173655000D03*
%TO.P,Volume1,2,2_2*%
%TO.N,Net-(R19-Pad2)*%
X99899999Y-158655000D03*
%TO.P,Volume1,3,3_3*%
%TO.N,0*%
X94899999Y-173655000D03*
%TD*%
D20*
%TO.P,L2,1,1_1*%
%TO.N,Net-(D13-A)*%
X108000000Y-42500000D03*
%TO.P,L2,2,2_2*%
%TO.N,-9V*%
X108000000Y-36500000D03*
%TD*%
D14*
%TO.P,C23,1*%
%TO.N,0*%
X94500000Y-42750000D03*
%TO.P,C23,2*%
%TO.N,Net-(D13-A)*%
X94500000Y-35250000D03*
%TD*%
D12*
%TO.P,R19,1*%
%TO.N,Net-(U2B--)*%
X129359999Y-113770000D03*
%TO.P,R19,2*%
%TO.N,Net-(R19-Pad2)*%
X129359999Y-108690000D03*
%TD*%
%TO.N,0*%
D38*
X76899999Y-150160000D02*
X83899999Y-150160000D01*
X90554999Y-150160000D02*
X83899999Y-150160000D01*
X93899999Y-150695000D02*
X91399999Y-150695000D01*
X91089999Y-150695000D02*
X90554999Y-150160000D01*
X91399999Y-150695000D02*
X91089999Y-150695000D01*
%TO.N,-9V*%
X92454999Y-106955000D02*
X91709999Y-106955000D01*
%TO.N,Net-(SW3-B)*%
X94939999Y-97650000D02*
X97899999Y-100610000D01*
X89169999Y-99335000D02*
X90854999Y-97650000D01*
X90854999Y-97650000D02*
X94939999Y-97650000D01*
%TO.N,Net-(C3-Pad1)*%
X136899999Y-143650000D02*
X135359999Y-145190000D01*
X135359999Y-145190000D02*
X135359999Y-151150000D01*
X131649999Y-151150000D02*
X131399999Y-151400000D01*
X135359999Y-151150000D02*
X131649999Y-151150000D01*
%TO.N,Net-(R16-Pad2)*%
X86899999Y-176650000D02*
X85399999Y-178150000D01*
X86899999Y-173655000D02*
X86899999Y-176650000D01*
%TO.N,Net-(R22-Pad1)*%
X116819999Y-106645000D02*
X118054999Y-107880000D01*
X116819999Y-103190000D02*
X116819999Y-106645000D01*
%TO.N,+9V*%
X83149999Y-95855000D02*
X83149999Y-95150000D01*
%TO.N,Net-(D3-K)*%
X86629999Y-114380000D02*
X86629999Y-106955000D01*
X45669999Y-151425000D02*
X45399999Y-151695000D01*
X96399999Y-112150000D02*
X91824999Y-112150000D01*
X91824999Y-112150000D02*
X86629999Y-106955000D01*
X60399999Y-151425000D02*
X53399999Y-151425000D01*
X87965214Y-115715215D02*
X86629999Y-114380000D01*
X42899999Y-151695000D02*
X45399999Y-151695000D01*
X53399999Y-151425000D02*
X45669999Y-151425000D01*
X97899999Y-110650000D02*
X96399999Y-112150000D01*
X97899999Y-105690000D02*
X97899999Y-110650000D01*
X87965214Y-118150000D02*
X87965214Y-115715215D01*
%TO.N,Net-(D7-K)*%
X60399999Y-148885000D02*
X53399999Y-148885000D01*
X57399999Y-142385000D02*
X57399999Y-145885000D01*
X57399999Y-145885000D02*
X60399999Y-148885000D01*
%TO.N,Net-(D3-A)*%
X42899999Y-144075000D02*
X45399999Y-144075000D01*
X47089999Y-142385000D02*
X45399999Y-144075000D01*
X52319999Y-142385000D02*
X47089999Y-142385000D01*
%TO.N,Net-(U2B--)*%
X125674999Y-112960000D02*
X128549999Y-112960000D01*
X128549999Y-112960000D02*
X129359999Y-113770000D01*
X121899999Y-109185000D02*
X125674999Y-112960000D01*
X121899999Y-103190000D02*
X121899999Y-109185000D01*
%TO.N,Net-(C2-Pad2)*%
X106439999Y-136360000D02*
X105399999Y-137400000D01*
X104399999Y-136400000D02*
X105399999Y-137400000D01*
X99899999Y-136400000D02*
X104399999Y-136400000D01*
X110899999Y-136360000D02*
X106439999Y-136360000D01*
%TO.N,Net-(SW2-A)*%
X54859999Y-139925000D02*
X54859999Y-142385000D01*
X57649999Y-137135000D02*
X54859999Y-139925000D01*
X57649999Y-135385000D02*
X57649999Y-137135000D01*
%TO.N,Net-(U2A--)*%
X96314213Y-178150000D02*
X123709999Y-150754214D01*
X119154999Y-124248478D02*
X119154999Y-111520000D01*
X117609999Y-110420000D02*
X118054999Y-110420000D01*
X128274213Y-140150000D02*
X128859999Y-139564214D01*
X128859999Y-133953478D02*
X119154999Y-124248478D01*
X123709999Y-150754214D02*
X123709999Y-143885786D01*
X114859999Y-107670000D02*
X117609999Y-110420000D01*
X123709999Y-143885786D02*
X127445785Y-140150000D01*
X128859999Y-139564214D02*
X128859999Y-133953478D01*
X127445785Y-140150000D02*
X128274213Y-140150000D01*
X114859999Y-106650000D02*
X114859999Y-107670000D01*
X119154999Y-111520000D02*
X118054999Y-110420000D01*
X90479999Y-178150000D02*
X96314213Y-178150000D01*
%TO.N,Net-(R19-Pad2)*%
X127629999Y-110420000D02*
X129359999Y-108690000D01*
X125674999Y-110420000D02*
X127629999Y-110420000D01*
%TO.N,Net-(SW1-A)*%
X86649999Y-135385000D02*
X83399999Y-138635000D01*
X83399999Y-138635000D02*
X83399999Y-141385000D01*
%TO.N,Net-(D1-K)*%
X93899999Y-143075000D02*
X91399999Y-143075000D01*
X89709999Y-141385000D02*
X91399999Y-143075000D01*
X85939999Y-141385000D02*
X89709999Y-141385000D01*
%TO.N,Net-(D4-K)*%
X76899999Y-147620000D02*
X83899999Y-147620000D01*
X80859999Y-141385000D02*
X80859999Y-143660000D01*
X80859999Y-143660000D02*
X76899999Y-147620000D01*
%TO.N,Net-(C1-Pad2)*%
X64399999Y-105150000D02*
X66399999Y-105150000D01*
X61439999Y-117690000D02*
X58399999Y-114650000D01*
X58399999Y-111150000D02*
X64399999Y-105150000D01*
X66399999Y-117690000D02*
X61439999Y-117690000D01*
X66399999Y-117690000D02*
X66399999Y-121900000D01*
X66399999Y-121900000D02*
X66649999Y-122150000D01*
X58399999Y-114650000D02*
X58399999Y-111150000D01*
%TO.N,Net-(U3-+)*%
X78899999Y-105150000D02*
X73899999Y-105150000D01*
X87364999Y-105150000D02*
X78899999Y-105150000D01*
X89169999Y-106955000D02*
X87364999Y-105150000D01*
%TO.N,Net-(Bass1-Pad2)*%
X81959999Y-140929365D02*
X81959999Y-143310000D01*
X81315634Y-140285000D02*
X81959999Y-140929365D01*
X104286521Y-144175000D02*
X110621521Y-137840000D01*
X114589999Y-135340000D02*
X111899999Y-132650000D01*
X47749999Y-158655000D02*
X62034364Y-158655000D01*
X81959999Y-143310000D02*
X82824999Y-144175000D01*
X80404364Y-140285000D02*
X81315634Y-140285000D01*
X110621521Y-137840000D02*
X114589999Y-137840000D01*
X82824999Y-144175000D02*
X104286521Y-144175000D01*
X62034364Y-158655000D02*
X80404364Y-140285000D01*
X114589999Y-137840000D02*
X114589999Y-135340000D01*
%TO.N,Net-(U1A--)*%
X88369744Y-131650000D02*
X62834744Y-157185000D01*
X56479999Y-175306106D02*
X56479999Y-178150000D01*
X112314213Y-131650000D02*
X88369744Y-131650000D01*
X62834744Y-157185000D02*
X47141105Y-157185000D01*
X46279999Y-158046106D02*
X46279999Y-165106106D01*
X110899999Y-141440000D02*
X113529999Y-141440000D01*
X113529999Y-141440000D02*
X114589999Y-140380000D01*
X115689999Y-135025786D02*
X112314213Y-131650000D01*
X115689999Y-139280000D02*
X115689999Y-135025786D01*
X114589999Y-140380000D02*
X115689999Y-139280000D01*
X46279999Y-165106106D02*
X56479999Y-175306106D01*
X47141105Y-157185000D02*
X46279999Y-158046106D01*
%TO.N,Net-(U1B--)*%
X97026105Y-151450000D02*
X115183477Y-151450000D01*
X115183477Y-151450000D02*
X121109999Y-145523478D01*
X121109999Y-144020000D02*
X122209999Y-142920000D01*
X121109999Y-145523478D02*
X121109999Y-144020000D01*
X73439999Y-175036106D02*
X97026105Y-151450000D01*
X73439999Y-178150000D02*
X73439999Y-175036106D01*
X123309999Y-149740000D02*
X123309999Y-144020000D01*
X123309999Y-144020000D02*
X122209999Y-142920000D01*
X121899999Y-151150000D02*
X123309999Y-149740000D01*
%TO.N,Net-(Mids1-Pad2)*%
X113739999Y-148850000D02*
X122209999Y-140380000D01*
X123439999Y-139150000D02*
X122209999Y-140380000D01*
X64899999Y-158655000D02*
X74704999Y-148850000D01*
X74704999Y-148850000D02*
X113739999Y-148850000D01*
X127859999Y-139150000D02*
X123439999Y-139150000D01*
%TO.N,Net-(C6-Pad1)*%
X109779999Y-106650000D02*
X106359999Y-106650000D01*
X106359999Y-106650000D02*
X105859999Y-106150000D01*
X105859999Y-108190000D02*
X109819999Y-112150000D01*
X105859999Y-106150000D02*
X105859999Y-108190000D01*
%TO.N,Net-(J1-PadT)*%
X66019999Y-112990000D02*
X66399999Y-112610000D01*
X58919999Y-123450000D02*
X67188477Y-123450000D01*
X73859999Y-112610000D02*
X73899999Y-112650000D01*
X67188477Y-123450000D02*
X67949999Y-122688478D01*
X67949999Y-114160000D02*
X66399999Y-112610000D01*
X67949999Y-122688478D02*
X67949999Y-114160000D01*
X66399999Y-112610000D02*
X73859999Y-112610000D01*
X53619999Y-118150000D02*
X58919999Y-123450000D01*
%TO.N,Net-(C5-Pad1)*%
X131399999Y-146730000D02*
X126979999Y-151150000D01*
X131399999Y-143900000D02*
X131399999Y-146730000D01*
X129609999Y-142110000D02*
X126899999Y-142110000D01*
X131399999Y-143900000D02*
X129609999Y-142110000D01*
%TO.N,Net-(C20-Pad2)*%
X122352271Y-166150000D02*
X122352271Y-174602272D01*
X135679999Y-166730000D02*
X130319999Y-166730000D01*
X130319999Y-166730000D02*
X122399999Y-174650000D01*
X122352271Y-174602272D02*
X122399999Y-174650000D01*
%TO.N,Net-(C18-Pad2)*%
X80899999Y-126650000D02*
X80899999Y-118584785D01*
X80899999Y-118584785D02*
X80465214Y-118150000D01*
%TO.N,Net-(Mids1-Pad1)*%
X69899999Y-173655000D02*
X69899999Y-176610000D01*
X69899999Y-176610000D02*
X68359999Y-178150000D01*
%TO.N,Net-(Bass1-Pad1)*%
X52749999Y-176800000D02*
X51399999Y-178150000D01*
X52749999Y-173655000D02*
X52749999Y-176800000D01*
%TD*%
M02*
