%TF.GenerationSoftware,KiCad,Pcbnew,10.0.4*%
%TF.CreationDate,2026-10-06T17:25:36+01:00*%
%TF.ProjectId,Distortion Pedal,44697374-6f72-4746-996f-6e2050656461,1*%
%TF.SameCoordinates,Original*%
%TF.FileFunction,Copper,L3,Inr*%
%TF.FilePolarity,Positive*%
%FSLAX46Y46*%
G04 Gerber Fmt 4.6, Leading zero omitted, Abs format (unit mm)*
G04 Created by KiCad (PCBNEW 10.0.4) date 2026-10-06 17:25:36*
%MOMM*%
%LPD*%
G01*
G04 APERTURE LIST*
G04 Aperture macros list*
%AMRoundRect*
0 Rectangle with rounded corners*
0 $1 Rounding radius*
0 $2 $3 $4 $5 $6 $7 $8 $9 X,Y pos of 4 corners*
0 Add a 4 corners polygon primitive as box body*
4,1,4,$2,$3,$4,$5,$6,$7,$8,$9,$2,$3,0*
0 Add four circle primitives for the rounded corners*
1,1,$1+$1,$2,$3*
1,1,$1+$1,$4,$5*
1,1,$1+$1,$6,$7*
1,1,$1+$1,$8,$9*
0 Add four rect primitives between the rounded corners*
20,1,$1+$1,$2,$3,$4,$5,0*
20,1,$1+$1,$4,$5,$6,$7,0*
20,1,$1+$1,$6,$7,$8,$9,0*
20,1,$1+$1,$8,$9,$2,$3,0*%
G04 Aperture macros list end*
%TA.AperFunction,ComponentPad*%
%ADD10RoundRect,0.250001X0.949999X-0.949999X0.949999X0.949999X-0.949999X0.949999X-0.949999X-0.949999X0*%
%TD*%
%TA.AperFunction,ComponentPad*%
%ADD11C,2.400000*%
%TD*%
%TA.AperFunction,ComponentPad*%
%ADD12C,1.400000*%
%TD*%
%TA.AperFunction,ComponentPad*%
%ADD13C,2.340000*%
%TD*%
%TA.AperFunction,ComponentPad*%
%ADD14C,2.000000*%
%TD*%
%TA.AperFunction,ComponentPad*%
%ADD15R,1.800000X1.800000*%
%TD*%
%TA.AperFunction,ComponentPad*%
%ADD16C,1.800000*%
%TD*%
%TA.AperFunction,ComponentPad*%
%ADD17RoundRect,0.250000X-0.550000X0.550000X-0.550000X-0.550000X0.550000X-0.550000X0.550000X0.550000X0*%
%TD*%
%TA.AperFunction,ComponentPad*%
%ADD18C,1.600000*%
%TD*%
%TA.AperFunction,ComponentPad*%
%ADD19R,1.500000X1.500000*%
%TD*%
%TA.AperFunction,ComponentPad*%
%ADD20C,3.200000*%
%TD*%
%TA.AperFunction,ComponentPad*%
%ADD21RoundRect,0.250000X-0.550000X-0.550000X0.550000X-0.550000X0.550000X0.550000X-0.550000X0.550000X0*%
%TD*%
%TA.AperFunction,ComponentPad*%
%ADD22RoundRect,0.250001X-0.949999X-0.949999X0.949999X-0.949999X0.949999X0.949999X-0.949999X0.949999X0*%
%TD*%
%TA.AperFunction,ComponentPad*%
%ADD23RoundRect,0.250001X-0.949999X0.949999X-0.949999X-0.949999X0.949999X-0.949999X0.949999X0.949999X0*%
%TD*%
%TA.AperFunction,ComponentPad*%
%ADD24R,0.850000X0.850000*%
%TD*%
%TA.AperFunction,ComponentPad*%
%ADD25R,2.250000X2.250000*%
%TD*%
%TA.AperFunction,ComponentPad*%
%ADD26C,2.250000*%
%TD*%
%TA.AperFunction,ComponentPad*%
%ADD27RoundRect,0.250000X0.550000X-0.550000X0.550000X0.550000X-0.550000X0.550000X-0.550000X-0.550000X0*%
%TD*%
%TA.AperFunction,ComponentPad*%
%ADD28RoundRect,0.249999X-0.850001X0.850001X-0.850001X-0.850001X0.850001X-0.850001X0.850001X0.850001X0*%
%TD*%
%TA.AperFunction,ComponentPad*%
%ADD29C,2.200000*%
%TD*%
%TA.AperFunction,ComponentPad*%
%ADD30C,3.400000*%
%TD*%
%TA.AperFunction,ComponentPad*%
%ADD31C,3.000000*%
%TD*%
%TA.AperFunction,ComponentPad*%
%ADD32R,4.600000X2.000000*%
%TD*%
%TA.AperFunction,ComponentPad*%
%ADD33O,4.200000X2.000000*%
%TD*%
%TA.AperFunction,ComponentPad*%
%ADD34O,2.000000X4.200000*%
%TD*%
%TA.AperFunction,ComponentPad*%
%ADD35RoundRect,0.250001X0.949999X0.949999X-0.949999X0.949999X-0.949999X-0.949999X0.949999X-0.949999X0*%
%TD*%
%TA.AperFunction,ComponentPad*%
%ADD36R,3.000000X3.000000*%
%TD*%
%TA.AperFunction,ComponentPad*%
%ADD37RoundRect,0.250000X0.550000X0.550000X-0.550000X0.550000X-0.550000X-0.550000X0.550000X-0.550000X0*%
%TD*%
%TA.AperFunction,Conductor*%
%ADD38C,0.800000*%
%TD*%
%TA.AperFunction,Conductor*%
%ADD39C,0.200000*%
%TD*%
G04 APERTURE END LIST*
D10*
%TO.N,0*%
%TO.C,C21*%
X133500000Y-43065216D03*
D11*
%TO.N,-9V*%
X133500000Y-35565216D03*
%TD*%
D12*
%TO.N,Net-(SW3-B)*%
%TO.C,R6*%
X140439999Y-151150000D03*
%TO.N,Net-(C3-Pad1)*%
X135359999Y-151150000D03*
%TD*%
D13*
%TO.N,Net-(R16-Pad2)*%
%TO.C,Treble1*%
X86899999Y-173655000D03*
%TO.N,Net-(R22-Pad1)*%
X81899999Y-158655000D03*
%TO.N,unconnected-(Treble1-Pad3)*%
X76899999Y-173655000D03*
%TD*%
D14*
%TO.N,+9V*%
%TO.C,C15*%
X122394999Y-133150000D03*
%TO.N,0*%
X129894999Y-133150000D03*
%TD*%
D15*
%TO.N,Net-(D3-K)*%
%TO.C,D8*%
X53399999Y-151425000D03*
D16*
%TO.N,Net-(D7-K)*%
X53399999Y-148885000D03*
%TD*%
D17*
%TO.N,Net-(D3-A)*%
%TO.C,D6*%
X45399999Y-144075000D03*
D18*
%TO.N,Net-(D3-K)*%
X45399999Y-151695000D03*
%TD*%
D12*
%TO.N,Net-(R22-Pad1)*%
%TO.C,R22*%
X116819999Y-103190000D03*
%TO.N,Net-(U2B--)*%
X121899999Y-103190000D03*
%TD*%
D14*
%TO.N,0*%
%TO.C,C2*%
X105399999Y-144900000D03*
%TO.N,Net-(C2-Pad2)*%
X105399999Y-137400000D03*
%TD*%
%TO.N,Net-(C3-Pad1)*%
%TO.C,C3*%
X136899999Y-143650000D03*
%TO.N,0*%
X144399999Y-143650000D03*
%TD*%
D19*
%TO.N,Net-(SW2-A)*%
%TO.C,SW2*%
X54859999Y-142385000D03*
D18*
%TO.N,Net-(D3-A)*%
X52319999Y-142385000D03*
%TO.N,Net-(D7-K)*%
X57399999Y-142385000D03*
%TD*%
D20*
%TO.N,+9V*%
%TO.C,L1*%
X106000000Y-72500000D03*
%TO.N,Net-(BT1-+)*%
X106000000Y-66500000D03*
%TD*%
D21*
%TO.N,Net-(R22-Pad1)*%
%TO.C,U2*%
X118054999Y-107880000D03*
D18*
%TO.N,Net-(U2A--)*%
X118054999Y-110420000D03*
%TO.N,0*%
X118054999Y-112960000D03*
%TO.N,-9V*%
X118054999Y-115500000D03*
%TO.N,0*%
X125674999Y-115500000D03*
%TO.N,Net-(U2B--)*%
X125674999Y-112960000D03*
%TO.N,Net-(R19-Pad2)*%
X125674999Y-110420000D03*
%TO.N,+9V*%
X125674999Y-107880000D03*
%TD*%
D19*
%TO.N,Net-(SW1-A)*%
%TO.C,SW1*%
X83399999Y-141385000D03*
D18*
%TO.N,Net-(D1-K)*%
X85939999Y-141385000D03*
%TO.N,Net-(D4-K)*%
X80859999Y-141385000D03*
%TD*%
D22*
%TO.N,Net-(C1-Pad2)*%
%TO.C,C19*%
X66399999Y-105150000D03*
D11*
%TO.N,Net-(U3-+)*%
X73899999Y-105150000D03*
%TD*%
D23*
%TO.N,+9V*%
%TO.C,C11*%
X131500000Y-66434784D03*
D11*
%TO.N,0*%
X131500000Y-73934784D03*
%TD*%
D21*
%TO.N,Net-(Bass1-Pad2)*%
%TO.C,U1*%
X114589999Y-137840000D03*
D18*
%TO.N,Net-(U1A--)*%
X114589999Y-140380000D03*
%TO.N,0*%
X114589999Y-142920000D03*
%TO.N,-9V*%
X114589999Y-145460000D03*
%TO.N,0*%
X122209999Y-145460000D03*
%TO.N,Net-(U1B--)*%
X122209999Y-142920000D03*
%TO.N,Net-(Mids1-Pad2)*%
X122209999Y-140380000D03*
%TO.N,+9V*%
X122209999Y-137840000D03*
%TD*%
D14*
%TO.N,0*%
%TO.C,C24*%
X120775000Y-43315216D03*
%TO.N,-9V*%
X120775000Y-35815216D03*
%TD*%
%TO.N,-9V*%
%TO.C,C12*%
X95899999Y-110400000D03*
%TO.N,0*%
X95899999Y-117900000D03*
%TD*%
D24*
%TO.N,0*%
%TO.C,J4*%
X135000000Y-56000000D03*
%TD*%
D12*
%TO.N,Net-(C6-Pad1)*%
%TO.C,R13*%
X109779999Y-106650000D03*
%TO.N,Net-(U2A--)*%
X114859999Y-106650000D03*
%TD*%
%TO.N,Net-(Mids1-Pad2)*%
%TO.C,R20*%
X127859999Y-139150000D03*
%TO.N,Net-(U2B--)*%
X132939999Y-139150000D03*
%TD*%
D10*
%TO.N,Net-(U4-CAP+)*%
%TO.C,C9*%
X117999999Y-59547729D03*
D11*
%TO.N,Net-(D13-K)*%
X117999999Y-52047729D03*
%TD*%
D25*
%TO.N,Net-(SW3-B)*%
%TO.C,SW4*%
X80149999Y-135385000D03*
D26*
%TO.N,Net-(SW1-A)*%
X86649999Y-135385000D03*
%TD*%
D14*
%TO.N,-9V*%
%TO.C,C17*%
X117424999Y-119920000D03*
%TO.N,0*%
X109924999Y-119920000D03*
%TD*%
D12*
%TO.N,0*%
%TO.C,R15*%
X73899999Y-117730000D03*
%TO.N,Net-(J1-PadT)*%
X73899999Y-112650000D03*
%TD*%
D25*
%TO.N,Net-(SW2-A)*%
%TO.C,SW3*%
X57649999Y-135385000D03*
D26*
%TO.N,Net-(SW3-B)*%
X51149999Y-135385000D03*
%TD*%
D14*
%TO.N,+9V*%
%TO.C,C22*%
X118500000Y-66250000D03*
%TO.N,0*%
X118500000Y-73750000D03*
%TD*%
%TO.N,+9V*%
%TO.C,C16*%
X125924999Y-103420000D03*
%TO.N,0*%
X133424999Y-103420000D03*
%TD*%
D12*
%TO.N,0*%
%TO.C,R5*%
X126899999Y-147190000D03*
%TO.N,Net-(C5-Pad1)*%
X126899999Y-142110000D03*
%TD*%
D27*
%TO.N,Net-(D3-K)*%
%TO.C,D3*%
X42899999Y-151695000D03*
D18*
%TO.N,Net-(D3-A)*%
X42899999Y-144075000D03*
%TD*%
D14*
%TO.N,0*%
%TO.C,C1*%
X74149999Y-122150000D03*
%TO.N,Net-(C1-Pad2)*%
X66649999Y-122150000D03*
%TD*%
D27*
%TO.N,unconnected-(U3-NULL-Pad1)*%
%TO.C,U3*%
X84089999Y-106955000D03*
D18*
%TO.N,Net-(D3-K)*%
X86629999Y-106955000D03*
%TO.N,Net-(U3-+)*%
X89169999Y-106955000D03*
%TO.N,-9V*%
X91709999Y-106955000D03*
%TO.N,unconnected-(U3-NULL-Pad5)*%
X91709999Y-99335000D03*
%TO.N,Net-(SW3-B)*%
X89169999Y-99335000D03*
%TO.N,+9V*%
X86629999Y-99335000D03*
%TO.N,unconnected-(U3-NC-Pad8)*%
X84089999Y-99335000D03*
%TD*%
D22*
%TO.N,Net-(C20-Pad1)*%
%TO.C,C20*%
X114852271Y-166150000D03*
D11*
%TO.N,Net-(C20-Pad2)*%
X122352271Y-166150000D03*
%TD*%
D12*
%TO.N,Net-(D3-K)*%
%TO.C,R3*%
X97899999Y-105690000D03*
%TO.N,Net-(SW3-B)*%
X97899999Y-100610000D03*
%TD*%
D14*
%TO.N,Net-(C5-Pad1)*%
%TO.C,C5*%
X131399999Y-143900000D03*
%TO.N,Net-(C3-Pad1)*%
X131399999Y-151400000D03*
%TD*%
D12*
%TO.N,0*%
%TO.C,R12*%
X75819999Y-126650000D03*
%TO.N,Net-(C18-Pad2)*%
X80899999Y-126650000D03*
%TD*%
D14*
%TO.N,-9V*%
%TO.C,C14*%
X114644999Y-150150000D03*
%TO.N,0*%
X107144999Y-150150000D03*
%TD*%
D15*
%TO.N,Net-(D4-K)*%
%TO.C,D4*%
X83899999Y-147620000D03*
D16*
%TO.N,0*%
X83899999Y-150160000D03*
%TD*%
D12*
%TO.N,Net-(J1-PadT)*%
%TO.C,R1*%
X66399999Y-112610000D03*
%TO.N,Net-(C1-Pad2)*%
X66399999Y-117690000D03*
%TD*%
D14*
%TO.N,Net-(C6-Pad1)*%
%TO.C,C6*%
X105859999Y-106150000D03*
%TO.N,Net-(SW3-B)*%
X105859999Y-113650000D03*
%TD*%
D12*
%TO.N,Net-(U1B--)*%
%TO.C,R17*%
X73439999Y-178150000D03*
%TO.N,Net-(Mids1-Pad1)*%
X68359999Y-178150000D03*
%TD*%
%TO.N,Net-(U2B--)*%
%TO.C,R21*%
X116979999Y-132650000D03*
%TO.N,Net-(Bass1-Pad2)*%
X111899999Y-132650000D03*
%TD*%
%TO.N,Net-(C6-Pad1)*%
%TO.C,R7*%
X109819999Y-112150000D03*
%TO.N,0*%
X114899999Y-112150000D03*
%TD*%
D28*
%TO.N,Net-(D13-K)*%
%TO.C,D13*%
X129000000Y-50920000D03*
D29*
%TO.N,Net-(D13-A)*%
X129000000Y-61080000D03*
%TD*%
D12*
%TO.N,Net-(SW3-B)*%
%TO.C,R4*%
X99899999Y-141480000D03*
%TO.N,Net-(C2-Pad2)*%
X99899999Y-136400000D03*
%TD*%
%TO.N,Net-(U2A--)*%
%TO.C,R16*%
X90479999Y-178150000D03*
%TO.N,Net-(R16-Pad2)*%
X85399999Y-178150000D03*
%TD*%
D15*
%TO.N,Net-(D7-K)*%
%TO.C,D7*%
X60399999Y-148885000D03*
D16*
%TO.N,Net-(D3-K)*%
X60399999Y-151425000D03*
%TD*%
D30*
%TO.N,0*%
%TO.C,J1*%
X47899999Y-123230000D03*
X47899999Y-113070000D03*
D31*
%TO.N,Net-(J1-PadT)*%
X53619999Y-118150000D03*
%TD*%
D12*
%TO.N,0*%
%TO.C,R2*%
X78899999Y-110230000D03*
%TO.N,Net-(U3-+)*%
X78899999Y-105150000D03*
%TD*%
D32*
%TO.N,Net-(BT1-+)*%
%TO.C,J3*%
X48000000Y-45300000D03*
D33*
%TO.N,0*%
X48000000Y-39000000D03*
D34*
%TO.N,Net-(BT1--)*%
X43200000Y-42400000D03*
%TD*%
D35*
%TO.N,Net-(D3-K)*%
%TO.C,C18*%
X87965214Y-118150000D03*
D11*
%TO.N,Net-(C18-Pad2)*%
X80465214Y-118150000D03*
%TD*%
D12*
%TO.N,Net-(U1A--)*%
%TO.C,R18*%
X56479999Y-178150000D03*
%TO.N,Net-(Bass1-Pad1)*%
X51399999Y-178150000D03*
%TD*%
D27*
%TO.N,0*%
%TO.C,D2*%
X91399999Y-150695000D03*
D18*
%TO.N,Net-(D1-K)*%
X91399999Y-143075000D03*
%TD*%
D17*
%TO.N,Net-(D1-K)*%
%TO.C,D1*%
X93899999Y-143075000D03*
D18*
%TO.N,0*%
X93899999Y-150695000D03*
%TD*%
D12*
%TO.N,Net-(C5-Pad1)*%
%TO.C,R23*%
X126979999Y-151150000D03*
%TO.N,Net-(U1B--)*%
X121899999Y-151150000D03*
%TD*%
D10*
%TO.N,0*%
%TO.C,C10*%
X81500000Y-42565215D03*
D11*
%TO.N,Net-(D13-A)*%
X81500000Y-35065215D03*
%TD*%
D36*
%TO.N,Net-(BT1-+)*%
%TO.C,BT1*%
X94149999Y-70350000D03*
D31*
%TO.N,Net-(BT1--)*%
X94149999Y-57650000D03*
%TD*%
D13*
%TO.N,Net-(Bass1-Pad1)*%
%TO.C,Bass1*%
X52749999Y-173655000D03*
%TO.N,Net-(Bass1-Pad2)*%
X47749999Y-158655000D03*
%TO.N,unconnected-(Bass1-Pad3)*%
X42749999Y-173655000D03*
%TD*%
D15*
%TO.N,0*%
%TO.C,D5*%
X76899999Y-150160000D03*
D16*
%TO.N,Net-(D4-K)*%
X76899999Y-147620000D03*
%TD*%
D13*
%TO.N,Net-(Mids1-Pad1)*%
%TO.C,Mids1*%
X69899999Y-173655000D03*
%TO.N,Net-(Mids1-Pad2)*%
X64899999Y-158655000D03*
%TO.N,unconnected-(Mids1-Pad3)*%
X59899999Y-173655000D03*
%TD*%
D30*
%TO.N,0*%
%TO.C,J2*%
X141399999Y-161650000D03*
X141399999Y-171810000D03*
D31*
%TO.N,Net-(C20-Pad2)*%
X135679999Y-166730000D03*
%TD*%
D12*
%TO.N,0*%
%TO.C,R14*%
X127479999Y-174650000D03*
%TO.N,Net-(C20-Pad2)*%
X122399999Y-174650000D03*
%TD*%
D14*
%TO.N,+9V*%
%TO.C,C13*%
X83149999Y-95150000D03*
%TO.N,0*%
X75649999Y-95150000D03*
%TD*%
D37*
%TO.N,unconnected-(U4-NC-Pad1)*%
%TO.C,U4*%
X107518832Y-60113058D03*
D18*
%TO.N,Net-(U4-CAP+)*%
X107518832Y-57573058D03*
%TO.N,0*%
X107518832Y-55033058D03*
%TO.N,Net-(D13-K)*%
X107518832Y-52493058D03*
%TO.N,Net-(D13-A)*%
X99898832Y-52493058D03*
%TO.N,unconnected-(U4-LV-Pad6)*%
X99898832Y-55033058D03*
%TO.N,unconnected-(U4-OSC-Pad7)*%
X99898832Y-57573058D03*
%TO.N,Net-(BT1-+)*%
X99898832Y-60113058D03*
%TD*%
D12*
%TO.N,Net-(C2-Pad2)*%
%TO.C,R11*%
X110899999Y-136360000D03*
%TO.N,Net-(U1A--)*%
X110899999Y-141440000D03*
%TD*%
D13*
%TO.N,Net-(C20-Pad1)*%
%TO.C,Volume1*%
X104899999Y-173655000D03*
%TO.N,Net-(R19-Pad2)*%
X99899999Y-158655000D03*
%TO.N,0*%
X94899999Y-173655000D03*
%TD*%
D20*
%TO.N,Net-(D13-A)*%
%TO.C,L2*%
X108000000Y-42500000D03*
%TO.N,-9V*%
X108000000Y-36500000D03*
%TD*%
D14*
%TO.N,0*%
%TO.C,C23*%
X94500000Y-42750000D03*
%TO.N,Net-(D13-A)*%
X94500000Y-35250000D03*
%TD*%
D12*
%TO.N,Net-(U2B--)*%
%TO.C,R19*%
X129359999Y-113770000D03*
%TO.N,Net-(R19-Pad2)*%
X129359999Y-108690000D03*
%TD*%
%TO.N,0*%
D38*
X118684784Y-73934784D02*
X118500000Y-73750000D01*
X47899999Y-123230000D02*
X47899999Y-113070000D01*
X81684785Y-42750000D02*
X81500000Y-42565215D01*
X141399999Y-161650000D02*
X141399999Y-171810000D01*
X94500000Y-42750000D02*
X81684785Y-42750000D01*
X133250000Y-43315216D02*
X133500000Y-43065216D01*
X131500000Y-73934784D02*
X118684784Y-73934784D01*
X120775000Y-43315216D02*
X133250000Y-43315216D01*
%TO.N,-9V*%
X95899999Y-113509899D02*
X120809999Y-138419899D01*
X120809999Y-143985000D02*
X120809999Y-146039899D01*
X133250000Y-35815216D02*
X133500000Y-35565216D01*
X95154999Y-110400000D02*
X95899999Y-110400000D01*
X121630100Y-146860000D02*
X122789898Y-146860000D01*
X108684784Y-35815216D02*
X108000000Y-36500000D01*
X81000000Y-106174011D02*
X81000000Y-92788730D01*
X107513058Y-69500000D02*
X113013058Y-64000000D01*
X114644999Y-150150000D02*
X114644999Y-145515000D01*
X132000000Y-61500000D02*
X132000000Y-49500000D01*
X104288730Y-69500000D02*
X107513058Y-69500000D01*
D39*
X114644999Y-145515000D02*
X114589999Y-145460000D01*
D38*
X118000000Y-46500000D02*
X108000000Y-36500000D01*
X122789898Y-146860000D02*
X123994999Y-145654899D01*
X120775000Y-35815216D02*
X108684784Y-35815216D01*
X118054999Y-115500000D02*
X118054999Y-119290000D01*
X113013058Y-64000000D02*
X129500000Y-64000000D01*
D39*
X118054999Y-119290000D02*
X117424999Y-119920000D01*
D38*
X95899999Y-110400000D02*
X85225989Y-110400000D01*
X132000000Y-49500000D02*
X129000000Y-46500000D01*
X91709999Y-106955000D02*
X95154999Y-110400000D01*
X129500000Y-64000000D02*
X132000000Y-61500000D01*
X123994999Y-145654899D02*
X123994999Y-126490000D01*
X120809999Y-138419899D02*
X120809999Y-143985000D01*
X120775000Y-35815216D02*
X133250000Y-35815216D01*
X85225989Y-110400000D02*
X81000000Y-106174011D01*
X129000000Y-46500000D02*
X118000000Y-46500000D01*
X123994999Y-126490000D02*
X117424999Y-119920000D01*
X95899999Y-110400000D02*
X95899999Y-113509899D01*
X120809999Y-146039899D02*
X121630100Y-146860000D01*
X81000000Y-92788730D02*
X104288730Y-69500000D01*
X114644999Y-150150000D02*
X120809999Y-143985000D01*
%TO.N,+9V*%
X122394999Y-133150000D02*
X120650000Y-133150000D01*
X125924999Y-92424999D02*
X125924999Y-103420000D01*
D39*
X122394999Y-137655000D02*
X122209999Y-137840000D01*
D38*
X112250000Y-66250000D02*
X106000000Y-72500000D01*
X125924999Y-103420000D02*
X125924999Y-107630000D01*
X106000000Y-102000000D02*
X106000000Y-72500000D01*
X83149999Y-94850000D02*
X83149999Y-95150000D01*
X131315216Y-66250000D02*
X131500000Y-66434784D01*
X103500000Y-116000000D02*
X103500000Y-104500000D01*
X106000000Y-72500000D02*
X105799999Y-72500000D01*
X86629999Y-99335000D02*
X83149999Y-95855000D01*
X122394999Y-133150000D02*
X122394999Y-137655000D01*
X105799999Y-72500000D02*
X83149999Y-95150000D01*
X106000000Y-72500000D02*
X125924999Y-92424999D01*
X118500000Y-66250000D02*
X131315216Y-66250000D01*
X83149999Y-95855000D02*
X83149999Y-95150000D01*
X106000000Y-72500000D02*
X106500000Y-73000000D01*
X118500000Y-66250000D02*
X112250000Y-66250000D01*
D39*
X125924999Y-107630000D02*
X125674999Y-107880000D01*
D38*
X103500000Y-104500000D02*
X106000000Y-102000000D01*
X120650000Y-133150000D02*
X103500000Y-116000000D01*
%TO.N,Net-(BT1-+)*%
X94149999Y-70350000D02*
X93599999Y-70350000D01*
X106000000Y-66214226D02*
X106000000Y-66500000D01*
X48000000Y-45300000D02*
X50500000Y-45300000D01*
X99898832Y-60113058D02*
X106000000Y-66214226D01*
X94149999Y-65861891D02*
X99898832Y-60113058D01*
X94149999Y-70350000D02*
X94149999Y-65861891D01*
X50500000Y-45300000D02*
X75550000Y-70350000D01*
X75550000Y-70350000D02*
X94149999Y-70350000D01*
%TO.N,Net-(U4-CAP+)*%
X117999999Y-59547729D02*
X109493503Y-59547729D01*
X109493503Y-59547729D02*
X107518832Y-57573058D01*
%TO.N,Net-(D13-K)*%
X107964161Y-52047729D02*
X107518832Y-52493058D01*
X129000000Y-50920000D02*
X119127728Y-50920000D01*
X119127728Y-50920000D02*
X117999999Y-52047729D01*
X117999999Y-52047729D02*
X107964161Y-52047729D01*
%TO.N,Net-(D13-A)*%
X99898832Y-52493058D02*
X102000000Y-54594226D01*
X81684785Y-35250000D02*
X81500000Y-35065215D01*
X102000000Y-57451618D02*
X106061440Y-61513058D01*
X99898832Y-40648832D02*
X94500000Y-35250000D01*
X106061440Y-61513058D02*
X128566942Y-61513058D01*
X99898832Y-50601168D02*
X108000000Y-42500000D01*
X99898832Y-52493058D02*
X99898832Y-40648832D01*
X99898832Y-52493058D02*
X99898832Y-50601168D01*
X94500000Y-35250000D02*
X81684785Y-35250000D01*
X128566942Y-61513058D02*
X129000000Y-61080000D01*
X102000000Y-54594226D02*
X102000000Y-57451618D01*
%TO.N,Net-(BT1--)*%
X65650000Y-57650000D02*
X94149999Y-57650000D01*
X43200000Y-42400000D02*
X50400000Y-42400000D01*
X50400000Y-42400000D02*
X65650000Y-57650000D01*
%TD*%
M02*
